{
	"asset":{
		"generator":"Khronos glTF Blender I/O v4.3.47",
		"version":"2.0"
	},
	"scene":0,
	"scenes":[
		{
			"name":"Scene",
			"nodes":[
				0
			]
		}
	],
	"nodes":[
		{
			"mesh":0,
			"name":"Suzanne",
			"translation":[
				0,
				1,
				0
			]
		}
	],
	"materials":[
		{
			"doubleSided":true,
			"name":"Material.001",
			"pbrMetallicRoughness":{
				"baseColorFactor":[
					0.021817419677972794,
					0.8004403114318848,
					0.11740808188915253,
					1
				],
				"metallicFactor":0,
				"roughnessFactor":0.5
			}
		},
		{
			"emissiveFactor":[
				0.01860322430729866,
				0.01860322430729866,
				0.01860322430729866
			],
			"name":"Material.002",
			"pbrMetallicRoughness":{
				"baseColorFactor":[
					0,
					0,
					0,
					1
				]
			}
		}
	],
	"meshes":[
		{
			"name":"Suzanne",
			"primitives":[
				{
					"attributes":{
						"POSITION":0,
						"NORMAL":1,
						"TEXCOORD_0":2,
						"TANGENT":3
					},
					"indices":4,
					"material":0
				},
				{
					"attributes":{
						"POSITION":5,
						"NORMAL":6,
						"TEXCOORD_0":7,
						"TANGENT":8
					},
					"indices":9,
					"material":1
				}
			]
		}
	],
	"accessors":[
		{
			"bufferView":0,
			"componentType":5126,
			"count":2967,
			"max":[
				1.2853199243545532,
				0.8988733291625977,
				0.7821264863014221
			],
			"min":[
				-1.2853198051452637,
				-0.9301150441169739,
				-0.7373420000076294
			],
			"type":"VEC3"
		},
		{
			"bufferView":1,
			"componentType":5126,
			"count":2967,
			"type":"VEC3"
		},
		{
			"bufferView":2,
			"componentType":5126,
			"count":2967,
			"type":"VEC2"
		},
		{
			"bufferView":3,
			"componentType":5126,
			"count":2967,
			"type":"VEC4"
		},
		{
			"bufferView":4,
			"componentType":5123,
			"count":12312,
			"type":"SCALAR"
		},
		{
			"bufferView":5,
			"componentType":5126,
			"count":2602,
			"max":[
				1.325934886932373,
				0.9392362236976624,
				0.8223199844360352
			],
			"min":[
				-1.325934886932373,
				-0.9704862236976624,
				-0.7782661318778992
			],
			"type":"VEC3"
		},
		{
			"bufferView":6,
			"componentType":5126,
			"count":2602,
			"type":"VEC3"
		},
		{
			"bufferView":7,
			"componentType":5126,
			"count":2602,
			"type":"VEC2"
		},
		{
			"bufferView":8,
			"componentType":5126,
			"count":2602,
			"type":"VEC4"
		},
		{
			"bufferView":9,
			"componentType":5123,
			"count":11808,
			"type":"SCALAR"
		}
	],
	"bufferViews":[
		{
			"buffer":0,
			"byteLength":35604,
			"byteOffset":0,
			"target":34962
		},
		{
			"buffer":0,
			"byteLength":35604,
			"byteOffset":35604,
			"target":34962
		},
		{
			"buffer":0,
			"byteLength":23736,
			"byteOffset":71208,
			"target":34962
		},
		{
			"buffer":0,
			"byteLength":47472,
			"byteOffset":94944,
			"target":34962
		},
		{
			"buffer":0,
			"byteLength":24624,
			"byteOffset":142416,
			"target":34963
		},
		{
			"buffer":0,
			"byteLength":31224,
			"byteOffset":167040,
			"target":34962
		},
		{
			"buffer":0,
			"byteLength":31224,
			"byteOffset":198264,
			"target":34962
		},
		{
			"buffer":0,
			"byteLength":20816,
			"byteOffset":229488,
			"target":34962
		},
		{
			"buffer":0,
			"byteLength":41632,
			"byteOffset":250304,
			"target":34962
		},
		{
			"buffer":0,
			"byteLength":23616,
			"byteOffset":291936,
			"target":34963
		}
	],
	"buffers":[
		{
			"byteLength":315552,
			"uri":"monkey-58e6f4f5c66939b6820792b8c88265cc.bin"
		}
	]
}
