{
	"asset":{
		"generator":"Khronos glTF Blender I/O v4.3.47",
		"version":"2.0"
	},
	"scene":0,
	"scenes":[
		{
			"name":"Scene",
			"nodes":[
				0
			]
		}
	],
	"nodes":[
		{
			"mesh":0,
			"name":"Head",
			"scale":[
				0.45399999618530273,
				0.45399999618530273,
				0.45399999618530273
			],
			"translation":[
				0.7294090390205383,
				1.4623401165008545,
				-0.5245912075042725
			]
		}
	],
	"materials":[
		{
			"doubleSided":true,
			"name":"Material.001",
			"pbrMetallicRoughness":{
				"baseColorFactor":[
					0.004024691879749298,
					0.0006070508388802409,
					0.008568127639591694,
					1
				],
				"metallicFactor":0,
				"roughnessFactor":0.5
			}
		},
		{
			"emissiveFactor":[
				1,
				1,
				1
			],
			"name":"Material.002",
			"pbrMetallicRoughness":{
				"baseColorFactor":[
					0,
					0,
					0,
					1
				]
			}
		}
	],
	"meshes":[
		{
			"name":"Cube.002",
			"primitives":[
				{
					"attributes":{
						"POSITION":0,
						"NORMAL":1,
						"TEXCOORD_0":2,
						"TANGENT":3
					},
					"indices":4,
					"material":0
				},
				{
					"attributes":{
						"POSITION":5,
						"NORMAL":6,
						"TEXCOORD_0":7,
						"TANGENT":8
					},
					"indices":9,
					"material":1
				}
			]
		}
	],
	"accessors":[
		{
			"bufferView":0,
			"componentType":5126,
			"count":141,
			"max":[
				0.6873612999916077,
				0.8086034059524536,
				0.8086034059524536
			],
			"min":[
				-0.8086034059524536,
				-0.8086034059524536,
				-0.8086034059524536
			],
			"type":"VEC3"
		},
		{
			"bufferView":1,
			"componentType":5126,
			"count":141,
			"type":"VEC3"
		},
		{
			"bufferView":2,
			"componentType":5126,
			"count":141,
			"type":"VEC2"
		},
		{
			"bufferView":3,
			"componentType":5126,
			"count":141,
			"type":"VEC4"
		},
		{
			"bufferView":4,
			"componentType":5123,
			"count":672,
			"type":"SCALAR"
		},
		{
			"bufferView":5,
			"componentType":5126,
			"count":141,
			"max":[
				0.7182641625404358,
				0.8395062685012817,
				0.8395062685012817
			],
			"min":[
				-0.8395062685012817,
				-0.8395062685012817,
				-0.8395062685012817
			],
			"type":"VEC3"
		},
		{
			"bufferView":6,
			"componentType":5126,
			"count":141,
			"type":"VEC3"
		},
		{
			"bufferView":7,
			"componentType":5126,
			"count":141,
			"type":"VEC2"
		},
		{
			"bufferView":8,
			"componentType":5126,
			"count":141,
			"type":"VEC4"
		},
		{
			"bufferView":9,
			"componentType":5123,
			"count":672,
			"type":"SCALAR"
		}
	],
	"bufferViews":[
		{
			"buffer":0,
			"byteLength":1692,
			"byteOffset":0,
			"target":34962
		},
		{
			"buffer":0,
			"byteLength":1692,
			"byteOffset":1692,
			"target":34962
		},
		{
			"buffer":0,
			"byteLength":1128,
			"byteOffset":3384,
			"target":34962
		},
		{
			"buffer":0,
			"byteLength":2256,
			"byteOffset":4512,
			"target":34962
		},
		{
			"buffer":0,
			"byteLength":1344,
			"byteOffset":6768,
			"target":34963
		},
		{
			"buffer":0,
			"byteLength":1692,
			"byteOffset":8112,
			"target":34962
		},
		{
			"buffer":0,
			"byteLength":1692,
			"byteOffset":9804,
			"target":34962
		},
		{
			"buffer":0,
			"byteLength":1128,
			"byteOffset":11496,
			"target":34962
		},
		{
			"buffer":0,
			"byteLength":2256,
			"byteOffset":12624,
			"target":34962
		},
		{
			"buffer":0,
			"byteLength":1344,
			"byteOffset":14880,
			"target":34963
		}
	],
	"buffers":[
		{
			"byteLength":16224,
			"uri":"Shine-b5780f2a6fdaa796e8d9d055446097b3.bin"
		}
	]
}
